<svg height="512" viewBox="0 0 1024 1024" xmlns="http://www.w3.org/2000/svg" xmlns:xlink="http://www.w3.org/1999/xlink" overflow="hidden"><path d="M229.517 442.147C215.7 442.147 205.465 431.4 205.465 417.583 205.465 403.254 215.7 392.508 230.029 392.508L562.151 392.508C575.968 392.508 586.203 403.254 586.203 417.072 586.203 431.4 575.968 442.147 561.639 442.147L229.517 442.147ZM229.517 586.459C215.7 586.459 205.465 575.712 205.465 561.895 205.465 547.567 215.7 536.82 230.029 536.82L429.097 536.82C442.914 536.82 453.149 547.566 453.149 561.383 453.149 575.712 442.914 586.459 428.585 586.459L229.517 586.459ZM229.517 743.564C215.7 743.564 205.465 732.817 205.465 719 205.465 704.672 215.7 693.925 230.029 693.925L383.04 693.925C396.857 693.925 407.092 704.671 407.092 718.489 407.092 732.817 396.857 743.564 382.528 743.564L229.517 743.564ZM438.821 158.641C428.586 158.641 418.863 154.547 411.699 147.383 404.534 140.218 400.44 129.983 400.44 119.748 400.44 98.7669 417.84 81.3676 439.333 81.3676 449.568 81.3676 459.291 85.4615 466.455 92.626 473.62 99.7904 477.714 110.025 477.714 120.26 477.714 141.753 460.314 158.641 438.821 158.641ZM468.502 1024C459.291 1024 450.591 1020.93 442.915 1015.81 441.38 1014.79 440.356 1014.28 439.333 1013.25L438.821 1012.74 438.309 1012.23 418.351 993.295C416.816 991.76 415.281 990.737 413.745 989.201 408.116 984.084 401.464 977.943 397.37 970.779L136.892 970.779C93.9051 970.779 59.1065 935.98 59.1065 893.505L59.1065 251.266 59.1065 244.613C59.1065 237.449 58.5948 230.285 59.6182 222.608 64.2239 189.345 89.8111 161.711 121.028 156.593 129.215 155.058 136.892 155.058 144.056 155.058L230.541 155.058C242.311 141.753 257.663 132.03 274.551 126.912 276.598 126.4 278.133 125.889 279.668 125.377 283.762 124.353 286.321 123.842 289.391 121.795 290.927 120.771 293.485 118.213 293.997 117.701L328.796 64.9912C338.007 51.1741 348.754 36.8453 364.106 25.0752 385.599 9.21111 413.233-0.00029 441.379-0.00029 465.943-0.00029 488.972 6.65238 508.93 18.4225 524.282 28.1457 537.587 40.9392 549.869 58.8503L587.738 113.607C590.809 118.213 594.903 121.283 600.532 123.842 602.579 124.865 605.649 125.889 608.72 126.401 612.814 127.424 616.396 128.959 620.49 130.494 627.143 133.053 632.772 136.635 638.401 140.729 644.03 144.823 649.147 149.429 653.753 154.546L731.027 154.546C755.59 154.546 774.525 161.199 788.854 174.504 804.718 189.345 813.417 209.815 813.417 232.843L813.417 393.019C813.417 406.836 802.671 417.071 788.854 417.071 774.525 417.071 763.778 406.836 763.778 392.508L763.778 233.867C763.778 222.096 761.219 215.956 754.567 209.815 749.961 205.721 743.308 203.162 737.167 203.162L674.735 203.162C676.782 224.655 671.664 245.637 659.382 262.013 640.448 287.088 611.79 301.417 580.062 301.928L303.72 301.928C276.598 301.928 249.987 290.67 232.588 272.247 214.677 253.313 205.977 227.726 208.024 203.162L134.845 203.162C131.262 203.162 129.215 203.162 125.121 205.209L124.098 205.209 121.027 206.744 118.469 208.279 117.445 209.303C113.351 213.397 108.234 219.538 107.722 227.214L107.722 891.97C107.722 895.552 107.722 895.552 108.746 898.623 109.257 899.646 109.257 901.181 109.769 902.205 110.281 902.717 110.281 903.74 110.793 904.252 111.304 904.764 111.304 905.275 111.816 906.299 112.84 907.322 113.351 908.346 113.863 908.858 116.422 911.928 118.469 913.463 121.027 914.998 126.657 918.581 131.774 919.092 140.985 919.092L401.463 919.092C402.487 917.557 404.022 916.022 405.046 914.998L532.982 782.969 534.517 781.433C527.864 769.151 522.235 756.87 518.141 744.076 500.742 692.902 502.789 635.586 522.235 586.971 542.705 537.332 578.527 496.392 623.049 471.317 657.336 452.382 696.228 442.148 735.633 442.148 750.474 442.148 765.314 443.683 779.643 446.242 830.306 456.476 878.41 484.622 910.65 524.027 944.937 565.99 963.871 618.188 964.383 671.409 964.383 729.236 941.866 786.04 902.974 827.491 877.898 854.101 847.194 874.571 812.907 886.853 812.907 898.623 811.372 912.44 805.231 925.745 792.949 951.333 766.338 968.732 738.192 969.244L537.587 969.244 500.23 1008.14 497.671 1010.7C489.995 1019.91 479.248 1024 468.502 1024ZM467.99 972.314 588.25 847.96C579.551 840.795 571.363 832.607 563.687 823.908L442.915 948.262 467.99 972.314ZM734.097 920.628C745.867 920.628 752.008 918.069 758.661 910.393 760.708 907.834 762.755 903.74 763.778 899.646 754.567 900.67 745.356 901.181 736.144 901.181 698.787 901.181 661.941 892.482 629.701 875.594L628.166 877.129 586.203 920.116 734.097 920.116ZM625.607 814.697 630.213 817.767C662.453 840.796 697.763 852.054 736.144 852.054 743.308 852.054 750.473 851.542 757.637 851.03 761.219 850.519 767.36 849.495 773.501 848.472 779.642 846.937 784.76 845.913 789.365 844.378 801.647 840.796 808.3 837.725 818.535 832.096 839.516 820.838 854.869 809.067 869.709 792.18 877.897 782.969 882.503 776.828 888.644 767.104 892.226 761.475 894.785 756.358 897.343 751.752 899.902 746.123 901.437 742.541 902.973 738.958 911.672 716.442 915.255 695.972 915.766 672.432 915.766 664.756 915.254 657.591 914.743 650.938 914.743 649.915 914.743 649.403 914.231 648.38L914.231 647.356C913.719 645.821 913.719 643.774 913.207 641.727 912.696 638.657 912.184 635.074 911.161 632.004 908.09 618.699 903.484 605.905 898.367 595.158 893.249 584.412 887.62 574.689 880.968 565.989 877.385 560.872 875.85 558.825 871.244 554.219 867.151 549.613 863.568 546.031 859.986 542.449 851.286 533.749 844.122 528.632 835.422 522.491 825.699 515.838 815.464 510.721 805.741 506.115 803.182 505.091 796.018 502.021 790.901 500.486 785.271 498.439 779.642 497.415 775.036 495.88 762.755 493.321 754.055 491.786 742.285 491.786L734.609 491.786C730.515 491.786 726.933 491.786 723.35 492.298 720.28 492.298 717.721 492.81 714.651 492.81L713.627 492.81C711.068 493.321 711.068 493.321 708.51 493.321 696.228 495.368 684.969 497.927 674.735 501.509 663.988 505.603 655.8 509.185 646.077 514.815 640.448 517.885 635.842 520.956 631.236 524.026 629.189 525.561 626.631 527.096 624.584 528.632 623.56 529.143 622.025 530.679 619.978 532.214 611.278 539.89 603.09 547.566 596.438 555.754 589.785 563.942 583.644 572.13 578.527 581.853 572.386 592.6 568.804 600.787 565.221 611.022 561.128 622.281 558.569 633.539 557.034 644.797 553.963 665.267 554.987 690.854 559.592 711.324 561.128 717.465 562.663 723.606 564.198 728.723 565.221 731.282 565.733 733.841 566.757 736.4 567.268 737.935 567.78 738.958 568.292 739.982L568.804 741.005 569.315 741.517C573.921 752.264 579.55 762.499 585.691 771.198 589.785 776.827 592.856 781.433 595.926 785.527 596.95 787.062 624.584 813.673 625.607 814.696ZM284.274 250.243C292.974 253.313 299.627 253.825 309.35 253.825L580.574 253.825C586.715 253.825 590.297 253.313 596.438 251.266 600.02 250.243 600.532 249.731 602.579 248.707 605.138 247.172 607.185 246.149 609.231 245.125 622.537 235.914 630.213 219.538 626.631 205.209 625.096 199.068 624.584 197.533 621.513 192.927 618.955 188.833 617.419 186.786 613.325 183.716 609.743 180.645 605.649 178.087 601.044 176.04 600.02 175.528 597.973 174.504 595.414 173.993L592.856 173.481C590.297 172.969 587.738 171.946 584.668 170.922 568.292 164.27 555.498 155.058 546.287 141.753 546.287 141.753 505.347 82.9023 503.812 80.8553L503.3 80.3435C502.789 79.8318 502.277 79.32 501.765 78.2965 501.253 77.7848 500.742 76.7613 499.718 76.2496 498.183 74.7143 496.648 72.6674 494.601 71.1321 493.065 69.5969 491.018 68.0617 489.483 66.5264L488.46 66.0147C487.436 65.5029 486.413 64.4794 485.389 63.9677 471.06 54.7563 456.732 50.1506 440.356 50.1506L434.215 50.1506C432.68 50.1506 431.144 50.1506 429.609 50.6623L428.586 50.6623C426.539 51.1741 423.98 51.6858 421.933 52.1976 416.816 53.2211 412.21 54.7563 408.628 56.2915L406.581 57.315 403.51 58.8502C401.463 59.8737 399.416 60.8972 397.369 62.4325 392.252 65.5029 391.228 66.5264 388.158 69.5969 385.599 71.6439 384.064 73.6908 382.017 75.2261 380.993 76.2495 380.482 77.273 379.458 77.7848 379.458 77.7848 378.947 78.8083 377.923 79.32L374.853 83.9257 337.495 140.729C334.425 145.335 331.354 150.452 326.749 155.058 319.584 161.711 311.908 167.34 302.185 170.922 298.603 172.457 295.021 173.481 291.95 173.993 288.88 174.504 286.321 175.528 284.274 176.551L283.762 176.551C283.25 177.063 282.227 177.063 281.715 177.575L278.645 179.11C277.621 179.622 276.598 180.645 275.574 181.157 275.063 181.669 274.039 182.181 273.527 182.692 269.945 185.763 266.363 189.345 265.851 190.88 260.222 199.068 258.175 205.209 258.175 213.397 258.175 222.097 260.734 228.749 265.851 235.914L266.363 236.425 267.386 237.449C267.898 238.472 268.922 238.984 269.945 240.008 271.48 241.543 273.016 243.078 274.551 244.102 275.063 244.613 275.574 245.125 276.598 245.637 277.621 246.149 278.645 247.172 279.668 247.684L282.739 249.219C282.227 249.219 283.25 249.731 284.274 250.242Z"/></svg>